# AST/ASF file generated using VICON BodyLanguage
# -----------------------------------------------
:version 1.10
:name VICON
:units
  mass 1.0
  length 0.45
  angle deg
:documentation
   .ast/.asf automatically generated from VICON data using
   VICON BodyBuilder and BodyLanguage model FoxedUp or BRILLIANT.MOD
:root
   order TX TY TZ RX RY RZ
   axis XYZ
   position 0 0 0  
   orientation 0 0 0 
:bonedata
  begin
     id 1 
     name lhipjoint
     direction 0.710188 -0.616876 0.339259 
     length 2.5669 
     axis 0 0 0  XYZ
  end
  begin
     id 2 
     name lfemur
     direction 0.34202 -0.939693 0  
     length 7.12796  
     axis 0 0 20  XYZ
    dof rx ry rz
    limits (-160.0 20.0)
           (-70.0 70.0)
           (-60.0 70.0)
  end
  begin
     id 3 
     name ltibia
     direction 0.34202 -0.939693 0   
     length 7.58108   
     axis 0 0 20   XYZ
    dof rx
    limits (-10.0 170.0)
  end
  begin
     id 4 
     name lfoot
     direction 0.0669471 -0.183936 0.980656   
     length 2.17365   
     axis -90 7.62852e-016 20   XYZ
    dof rx rz
    limits (-45.0 90.0)
           (-70.0 20.0)
  end
  begin
     id 5 
     name ltoes
     direction 1.53508e-011 -4.21705e-011 1   
     length 1.09427   
     axis -90 7.62852e-016 20   XYZ
    dof rx
    limits (-90.0 20.0)
  end
  begin
     id 6 
     name rhipjoint
     direction -0.700191 -0.625589 0.34405   
     length 2.53115  
     axis 0 0 0  XYZ 
  end
  begin
     id 7 
     name rfemur
     direction -0.34202 -0.939693 0   
     length 7.33006   
     axis 0 0 -20   XYZ
    dof rx ry rz
    limits (-160.0 20.0)
           (-70.0 70.0)
           (-70.0 60.0)
  end
  begin
     id 8 
     name rtibia
     direction -0.34202 -0.939693 0   
     length 7.64926   
     axis 0 0 -20   XYZ
    dof rx
    limits (-10.0 170.0)
 end
 begin
     id 9 
     name rfoot
     direction -0.0688927 -0.189281 0.979503   
     length 2.20493  
     axis -90 -7.62852e-016 -20   XYZ
    dof rx rz
    limits (-45.0 90.0)
           (-20.0 70.0)
  end
  begin
     id 10 
     name rtoes
     direction -1.53567e-011 -4.21933e-011 1   
     length 1.10919   
     axis -90 -7.62852e-016 -20   XYZ
    dof rx
    limits (-90.0 20.0)
  end
  begin
     id 11 
     name lowerback
     direction -0.0167868 0.989873 -0.140959   
     length 2.14596   
     axis 0 0 0   XYZ
    dof rx ry rz
    limits (-20.0 45.0)
           (-30.0 30.0)
           (-30.0 30.0)
  end
  begin
     id 12 
     name upperback
     direction 0.0129109 0.998033 0.0613525   
     length 2.10457   
     axis 0 0 0   XYZ
    dof rx ry rz
    limits (-20.0 45.0)
           (-30.0 30.0)
           (-30.0 30.0)
  end
  begin
     id 13 
     name thorax
     direction 0.0177047 0.991119 0.131797   
     length 2.17652   
     axis 0 0 0   XYZ
    dof rx ry rz
    limits (-20.0 45.0)
           (-30.0 30.0)
           (-30.0 30.0)
  end
  begin
     id 14 
     name lowerneck
     direction -0.0336893 0.997548 0.0613464   
     length 1.8912   
     axis 0 0 0   XYZ
    dof rx ry rz
    limits (-20.0 45.0)
           (-30.0 30.0)
           (-30.0 30.0)
  end
  begin
     id 15 
     name upperneck
     direction 0.0435909 0.997179 -0.0611028   
     length 1.8829   
     axis 0 0 0   XYZ
    dof rx ry rz
    limits (-20.0 45.0)
           (-30.0 30.0)
           (-30.0 30.0)
  end
  begin
     id 16
     name head
     direction 0.0175076 0.999444 -0.0283782  
     length 1.93197  
     axis 0 0 0   XYZ
    dof rx ry rz
    limits (-20.0 45.0)
           (-30.0 30.0)
           (-30.0 30.0)
  end
  begin
     id 17 
     name lclavicle
     direction 0.919164 0.389875 0.0559876  
     length 3.60004  
     axis 0 0 0   XYZ
    dof ry rz
    limits (-20.0 10.0)
           (0.0 20.0)
  end
  begin
     id 18 
     name lhumerus
     direction 1 -4.48958e-011 6.89191e-027   
     length 5.43301   
     axis 180 -30 -90   XYZ
    dof rx ry rz
    limits (-60.0 90.0)
           (-90.0 90.0)
           (-90.0 90.0)
  end
  begin
     id 19
     name lradius
     direction 1 -4.4897e-011 3.24727e-027   
     length 3.15936   
     axis 180 -30 -90   XYZ
    dof rx
    limits (-10.0 170.0)
  end
  begin
     id 20
     name lwrist
     direction 1 -4.4897e-011 9.00228e-027   
     length 1.57968   
     axis -6.29373e-015 90 90   XYZ
    dof ry
    limits (-180.0 0.0)
 end
  begin
     id 21 
     name lhand
     direction 1 -4.48968e-011 1.80042e-026   
     length 0.712827   
     axis -1.14882e-014 90 90   XYZ
    dof rx rz
    limits (-90.0 90.0)
           (-45.0 45.0)
  end
  begin
     id 22 
     name lfingers
     direction 1 -4.49019e-011 3.60267e-026   
     length 0.574699   
     axis -2.29769e-014 90 90   XYZ
    dof rx
    limits (0.0 90.0)
  end
  begin
     id 23
     name lthumb
     direction 0.707107 -6.3498e-011 0.707107   
     length 0.825157   
     axis -90 45 5.37419e-014   XYZ
    dof rx rz
    limits (-45.0 45.0)
           (-45.0 45.0)
  end
  begin
     id 24 
     name rclavicle
     direction -0.890334 0.455305 -0.00132111   
     length 3.51494  
     axis 0 0 0   XYZ 
    dof ry rz
    limits (-10.0 20.0)
           (-20.0 0.0)
  end
  begin
     id 25 
     name rhumerus
     direction -1 -4.48967e-011 5.07175e-028  
     length 5.34194   
     axis 180 30 90   XYZ
    dof rx ry rz
    limits (-90.0 60.0)
           (-90.0 90.0)
           (-90.0 90.0)
  end
  begin
     id 26 
     name rradius
     direction -1 -4.48955e-011 3.30467e-027   
     length 3.19351   
     axis 180 30 90   XYZ
    dof rx
    limits (-10.0 170.0)
  end
  begin
     id 27 
     name rwrist
     direction -1 -4.48968e-011 9.00208e-027   
     length 1.59676   
     axis -6.29373e-015 -90 -90   XYZ
    dof ry
    limits (-180.0 0.0)
  end
  begin
     id 28
     name rhand
     direction -1 -4.49e-011 1.80099e-026   
     length 0.743862   
     axis -1.14882e-014 -90 -90   XYZ
    dof rx rz
    limits (-90.0 90.0)
           (-45.0 45.0)
  end
  begin
     id 29
     name rfingers
     direction -1 -4.49009e-011 3.6023e-026   
     length 0.599721   
     axis -2.29769e-014 -90 -90   XYZ
    dof rx
    limits (0.0 90.0)
  end
  begin
     id 30
     name rthumb
     direction -0.707107 -6.35025e-011 0.707107   
     length 0.861083   
     axis -90 -45 -5.37419e-014   XYZ
    dof rx rz
    limits (-45.0 45.0)
           (-45.0 45.0)
  end
:hierarchy
  begin
    root lhipjoint rhipjoint lowerback
    lhipjoint lfemur
    lfemur ltibia
    ltibia lfoot
    lfoot ltoes
    rhipjoint rfemur
    rfemur rtibia
    rtibia rfoot
    rfoot rtoes
    lowerback upperback
    upperback thorax
    thorax lowerneck lclavicle rclavicle
    lowerneck upperneck
    upperneck head
    lclavicle lhumerus
    lhumerus lradius
    lradius lwrist
    lwrist lhand lthumb
    lhand lfingers
    rclavicle rhumerus
    rhumerus rradius
    rradius rwrist
    rwrist rhand rthumb
    rhand rfingers
  end

#!OML:ASF H:\Martial Arts Walks\Project 1\Capture day 1\Session 1\male.ASF
:FULLY-SPECIFIED
:DEGREES
123
root -0.812643 11.4857 11.2753 9.09375 1.43621 -1.66837
lowerback 18.9679 1.58205 -2.39146
upperback -3.5317 1.69696 1.12447
thorax -14.8685 1.05049 2.10836
lowerneck -8.49976 -3.28682 -5.7269
upperneck 5.75689 -4.13814 5.25013
head 3.69538 -1.96575 2.54898
rclavicle 2.29224e-014 1.47598e-014
rhumerus 39.7315 -2.48642 -63.3781
rradius 94.1606
rwrist 20.8921
rhand 1.23651 -14.0294
rfingers 7.12502
rthumb 26.7742 -42.1546
lclavicle 2.29224e-014 1.47598e-014
lhumerus 42.3061 -4.72256 86.903
lradius 87.8138
lwrist -35.6949
lhand -10.8774 2.09377
lfingers 7.12502
lthumb 15.1386 31.5201
rfemur -73.365 -5.41654 21.1471
rtibia 108.212
rfoot -33.2902 -17.5656
rtoes -13.3207
lfemur -73.9231 11.5014 -18.33
ltibia 107.288
lfoot -31.3819 16.72
ltoes -13.4919
124
root -0.813529 11.4849 11.2746 9.10689 1.42452 -1.67519
lowerback 18.9582 1.58253 -2.3834
upperback -3.53474 1.69971 1.12376
thorax -14.8662 1.05101 2.10219
lowerneck -8.54362 -3.29017 -5.72241
upperneck 5.84973 -4.14318 5.24046
head 3.73652 -1.96803 2.54485
rclavicle -1.23743e-014 -1.1281e-014
rhumerus 39.7295 -2.48607 -63.3762
rradius 94.1463
rwrist 20.8889
rhand 1.26836 -14.0285
rfingers 7.12502
rthumb 26.8047 -42.149
lclavicle -1.23743e-014 -1.1281e-014
lhumerus 42.3215 -4.73716 86.8785
lradius 87.8006
lwrist -35.696
lhand -10.8691 2.10279
lfingers 7.12502
lthumb 15.1466 31.5285
rfemur -73.3903 -5.38979 21.1562
rtibia 108.217
rfoot -33.2739 -17.5798
rtoes -13.3554
lfemur -73.948 11.5068 -18.3223
ltibia 107.297
lfoot -31.3669 16.744
ltoes -13.5408
125
root -0.814438 11.484 11.2738 9.1197 1.41042 -1.68302
lowerback 18.9496 1.58377 -2.37626
upperback -3.53866 1.70336 1.1239
thorax -14.8656 1.0521 2.09722
lowerneck -8.5827 -3.29091 -5.72332
upperneck 5.9422 -4.14445 5.2327
head 3.77668 -1.96857 2.54267
rclavicle -3.2054e-015 -1.68967e-015
rhumerus 39.7273 -2.48292 -63.3732
rradius 94.1282
rwrist 20.8835
rhand 1.29206 -14.0228
rfingers 7.12502
rthumb 26.8273 -42.1398
lclavicle -3.2054e-015 -1.68967e-015
lhumerus 42.3346 -4.75 86.8533
lradius 87.7852
lwrist -35.6931
lhand -10.8671 2.11896
lfingers 7.12502
lthumb 15.1485 31.5445
rfemur -73.4173 -5.35798 21.1654
rtibia 108.223
rfoot -33.2576 -17.5902
rtoes -13.3726
lfemur -73.9726 11.5165 -18.3146
ltibia 107.307
lfoot -31.351 16.7724
ltoes -13.6066
126
root -0.815451 11.4828 11.2732 9.12992 1.39804 -1.69184
lowerback 18.9436 1.58483 -2.36939
upperback -3.54245 1.70676 1.12497
thorax -14.8665 1.05318 2.0935
lowerneck -8.604 -3.28733 -5.68459
upperneck 6.30747 -4.16631 5.40186
head 3.51292 -1.95439 2.32898
rclavicle 5.57839e-015 2.48481e-015
rhumerus 39.7232 -2.47866 -63.3693
rradius 94.1091
rwrist 20.8718
rhand 1.30625 -14.0143
rfingers 7.12502
rthumb 26.8409 -42.1292
lclavicle 5.57839e-015 2.48481e-015
lhumerus 42.3458 -4.76193 86.8278
lradius 87.7661
lwrist -35.6875
lhand -10.8757 2.13786
lfingers 7.12502
lthumb 15.1403 31.564
rfemur -73.4429 -5.32717 21.1761
rtibia 108.231
rfoot -33.2444 -17.6017
rtoes -13.388
lfemur -73.9973 11.5273 -18.3045
ltibia 107.32
lfoot -31.3385 16.7937
ltoes -13.6552
127
root -0.816575 11.4817 11.2727 9.13839 1.39014 -1.69866
lowerback 18.9398 1.58479 -2.36468
upperback -3.54728 1.70818 1.12642
thorax -14.8699 1.0536 2.09204
lowerneck -8.64793 -3.28716 -5.68449
upperneck 6.41638 -4.16612 5.38397
head 3.55268 -1.95422 2.32244
rclavicle -7.24322e-015 -6.75868e-015
rhumerus 39.7153 -2.47273 -63.3626
rradius 94.0886
rwrist 20.8593
rhand 1.30689 -14.003
rfingers 7.12502
rthumb 26.8415 -42.1178
lclavicle -7.24322e-015 -6.75868e-015
lhumerus 42.3532 -4.77261 86.8018
lradius 87.746
lwrist -35.6799
lhand -10.8887 2.15796
lfingers 7.12502
lthumb 15.1277 31.5851
rfemur -73.4644 -5.30229 21.1859
rtibia 108.238
rfoot -33.2361 -17.6088
rtoes -13.3877
lfemur -74.0178 11.534 -18.2942
ltibia 107.33
lfoot -31.3327 16.8014
ltoes -13.6759
128
root -0.817886 11.4805 11.2723 9.14427 1.38819 -1.7051
lowerback 18.9388 1.58346 -2.36082
upperback -3.55193 1.70768 1.12849
thorax -14.8748 1.05327 2.09235
lowerneck -8.69739 -3.28576 -5.68385
upperneck 6.53151 -4.16392 5.36254
head 3.59505 -1.95314 2.31477
rclavicle 1.28589e-014 8.44835e-015
rhumerus 39.7074 -2.46765 -63.3543
rradius 94.066
rwrist 20.8486
rhand 1.29836 -13.9927
rfingers 7.12502
rthumb 26.8334 -42.1088
lclavicle 1.28589e-014 8.44835e-015
lhumerus 42.3589 -4.7829 86.7765
lradius 87.7232
lwrist -35.674
lhand -10.9031 2.17366
lfingers 7.12502
lthumb 15.1139 31.6018
rfemur -73.4828 -5.28568 21.1977
rtibia 108.247
rfoot -33.2331 -17.6121
rtoes -13.369
lfemur -74.037 11.5377 -18.2815
ltibia 107.341
lfoot -31.3321 16.7951
ltoes -13.6583
